<?xml version="1.0" encoding="UTF-8"?>
<!DOCTYPE svg PUBLIC "-//W3C//DTD SVG 1.1//EN" "http://www.w3.org/Graphics/SVG/1.1/DTD/svg11.dtd">
<!-- Creator: CorelDRAW -->
<svg xmlns="http://www.w3.org/2000/svg" xml:space="preserve" width="67mm" height="67mm" version="1.1" style="shape-rendering:geometricPrecision; text-rendering:geometricPrecision; image-rendering:optimizeQuality; fill-rule:evenodd; clip-rule:evenodd"
viewBox="0 0 5976.38 5976.38"
 xmlns:xlink="http://www.w3.org/1999/xlink"
 xmlns:xodm="http://www.corel.com/coreldraw/odm/2003">
 <defs>
  <style type="text/css">
   <![CDATA[
    .str1 {stroke:#2B2A29;stroke-width:178.4;stroke-miterlimit:22.9256}
    .str0 {stroke:#2B2A29;stroke-width:44.6;stroke-miterlimit:22.9256}
    .fil1 {fill:none}
    .fil0 {fill:#2B2A29}
   ]]>
  </style>
 </defs>
 <g id="Layer_x0020_1">
  <metadata id="CorelCorpID_0Corel-Layer"/>
  <path class="fil0 str0" d="M1968.34 3956.09c-6.03,-2.76 -10.39,-12.51 -15.43,-18.04l-91.41 -89.56c-0.52,-0.49 -1.24,-1.23 -1.76,-1.73l-57.64 -53.68c-0.51,-0.49 -1.23,-1.22 -1.74,-1.73l-158.28 -154.88c-0.51,-0.51 -1.23,-1.23 -1.75,-1.74l-5.26 -5.16c-0.54,-0.48 -1.3,-1.16 -1.85,-1.63l-39.85 -36.71c-0.51,-0.5 -1.26,-1.2 -1.77,-1.7 -0.51,-0.5 -1.22,-1.23 -1.73,-1.73 -0.72,-0.7 -2.81,-2.77 -3.53,-3.47 -0.51,-0.5 -1.26,-1.2 -1.77,-1.7l-3.49 -3.46c-0.72,-0.7 -2.85,-2.68 -3.58,-3.37 -2.68,-2.58 -3.54,-3.43 -5.32,-5.13l-3.55 -3.42c-2.58,-2.5 -4.67,-4.54 -7.04,-6.87 -1.88,-1.84 -2.56,-2.5 -5.29,-5.17l-12.29 -12.05c-5.41,-5.33 -9.27,-9.37 -15.61,-15.71 -12.13,-12.16 -21.92,-21.74 -33.2,-32.91l-102.45 -99.4c-7.25,-5.73 -2.87,-1.58 -9.7,-7.66l-21.05 -20.74c-0.5,-0.49 -1.22,-1.23 -1.72,-1.74l-101.82 -99.96c-5.93,-5.79 -11.66,-11.47 -17.6,-17.26 -3.08,-3.01 -4.72,-4.61 -8.77,-8.6l-66.94 -65.23c-2.96,-2.35 -5.1,-3.59 -8.01,-5.92l-7.33 -6.62c-0.53,-0.5 -1.26,-1.22 -1.77,-1.72l-27.64 -28.01c-0.54,-0.45 -1.35,-1.1 -1.88,-1.57 -0.54,-0.46 -1.29,-1.17 -1.82,-1.65l-36.91 -36.19c-0.72,-0.71 -2.8,-2.72 -3.52,-3.43 -0.51,-0.5 -1.21,-1.24 -1.72,-1.74l-5.28 -5.16c-0.52,-0.5 -1.23,-1.23 -1.74,-1.73l-58.39 -56.45c-0.51,-0.49 -1.26,-1.2 -1.77,-1.69l-16.42 -14.95c-0.83,-0.62 -3.43,-2.19 -4.23,-2.88 -9.59,-8.29 -11.56,-17.37 -1.03,-29.31l40.19 -36.55c0.56,-0.45 1.4,-1.08 1.94,-1.54 0.55,-0.46 1.34,-1.13 1.86,-1.61l302.37 -292.63c0.51,-0.5 1.22,-1.23 1.73,-1.73 0.51,-0.51 1.27,-1.2 1.78,-1.7 0.72,-0.7 2.8,-2.75 3.52,-3.45l115.28 -110.84c0.51,-0.49 1.23,-1.23 1.74,-1.72l243.68 -236.54c0.51,-0.51 1.22,-1.25 1.73,-1.77l100.43 -97.86c0.52,-0.51 1.26,-1.21 1.78,-1.72l38.45 -34.57c0.56,-0.45 1.35,-1.11 1.9,-1.59 16.23,-13.88 -6.06,5.66 3.6,-3.37 0.53,-0.49 1.27,-1.21 1.78,-1.71l24.62 -24.07c2.48,-2.46 4.66,-4.61 6.98,-6.92 11.77,-11.62 23.35,-23 35.06,-34.56 11.19,-11.05 21.35,-20.88 33.16,-32.93l14.16 -17.68c11.59,-11.03 22.34,2.52 30.62,10.93l140.16 138.23c15.66,15 20,19.16 3.12,35.71l-47.76 46.2c-0.51,0.49 -1.24,1.22 -1.75,1.72l-14.18 13.68c-6.48,5.63 -8.14,5.78 -13.86,10.48l-91.85 89.06c-0.72,0.71 -2.78,2.75 -3.51,3.46l-7.01 6.9c-0.51,0.5 -1.23,1.24 -1.74,1.73l-12.28 12.1c-0.52,0.51 -1.22,1.25 -1.73,1.74l-3.52 3.42c-0.51,0.5 -1.23,1.24 -1.74,1.75l-40.43 39.6c-0.71,0.7 -2.74,2.8 -3.45,3.51 -0.5,0.51 -1.23,1.24 -1.74,1.74 -0.51,0.5 -1.24,1.23 -1.75,1.73l-34.92 31.17c-0.52,0.5 -1.24,1.23 -1.76,1.72l-5.33 5.09c-0.51,0.49 -1.24,1.22 -1.76,1.73l-70.43 68.76c-2.54,2.49 -3.59,3.51 -5.28,5.16l-8.74 8.65c-0.51,0.51 -1.26,1.2 -1.77,1.7l-24.57 24.18c-0.51,0.49 -1.23,1.22 -1.74,1.73l-8.77 8.63c-1.83,1.82 -2.44,2.47 -5.24,5.23l-37.74 35.21c-0.58,0.44 -1.43,1.04 -1.99,1.5l-30.28 28.94c-0.51,0.5 -1.27,1.2 -1.78,1.7 -0.52,0.51 -1.23,1.24 -1.75,1.74 -0.51,0.5 -1.23,1.23 -1.76,1.73l-91.46 89.48c-0.51,0.5 -1.26,1.21 -1.77,1.71 -0.52,0.5 -1.26,1.2 -1.78,1.7l-17.47 17.3c-0.52,0.51 -1.23,1.24 -1.74,1.74l-102.75 95.58c-2.87,2.84 -4.01,4.01 -6.97,6.96l-31.36 27.7c-0.73,0.71 -2.82,2.76 -3.55,3.47 -0.52,0.51 -1.27,1.2 -1.78,1.7l-7.1 6.87c-37.74,36.82 -34.82,61.69 3.76,99.31 0.72,0.7 2.82,2.73 3.54,3.44l55.29 52.57c0.51,0.49 1.24,1.22 1.76,1.72l249.29 237.85c0.51,0.51 1.27,1.2 1.77,1.7l151.13 148.13c0.53,0.48 1.31,1.14 1.86,1.61l17.21 14.07c0.51,0.51 1.24,1.24 1.75,1.74 0.52,0.51 1.24,1.24 1.74,1.74l47.17 46.77c0.51,0.51 1.26,1.21 1.77,1.72l20.94 20.83c0.5,0.5 1.21,1.25 1.73,1.75l89.9 87.57c0.52,0.5 1.24,1.23 1.76,1.73l7.11 6.81c0.53,0.48 1.28,1.19 1.82,1.64l30.1 25.58c0.5,0.5 1.22,1.23 1.73,1.73 1.78,1.75 2.59,2.51 5.28,5.16 3.55,3.5 3.48,3.43 7,6.92l15.7 15.64c0.51,0.5 1.22,1.25 1.73,1.75 3.21,3.19 3.69,3.69 6.94,6.94l17.49 17.34c8.55,8.6 14.51,18.2 25.99,22.5l-0.07 13.83 -88.62 84.95c-8.6,8.74 -14.81,15.01 -22.57,22.63l-44.24 42.8c-0.7,0.74 -2.64,2.94 -3.34,3.68 -7.64,8.24 -5.65,11.64 -21.78,11.63zm-492.46 -962.52c0.57,-11.82 -1.82,-3.34 2.34,-10.12l50.76 -49.98c0.53,-0.47 1.28,-1.18 1.83,-1.62l19.3 -15.49c0.52,-0.5 1.27,-1.2 1.78,-1.69 0.51,-0.51 1.24,-1.23 1.76,-1.73 1.61,-1.57 2.87,-2.78 5.33,-5.16l35.65 -33.92c0.53,-0.5 1.26,-1.22 1.78,-1.71l33.59 -32.53c0.51,-0.51 1.17,-1.31 1.69,-1.81 0.51,-0.5 1.19,-1.28 1.71,-1.76l34.85 -31.23c0.5,-0.51 1.23,-1.23 1.74,-1.73l13.95 -13.9c0.51,-0.51 1.22,-1.25 1.72,-1.75l10.51 -10.36c0.51,-0.5 1.26,-1.2 1.77,-1.7l33.29 -32.83c0.51,-0.5 1.25,-1.22 1.76,-1.71 0.51,-0.5 1.24,-1.23 1.75,-1.72 0.72,-0.71 2.82,-2.74 3.55,-3.43 0.51,-0.51 1.27,-1.2 1.78,-1.7l45.84 -44.65c0.51,-0.51 1.27,-1.2 1.78,-1.69 0.52,-0.5 1.28,-1.19 1.79,-1.69l61.42 -56.86c0.51,-0.5 1.25,-1.22 1.76,-1.71 1.88,-1.86 2.46,-2.35 5.3,-5.15l3.46 -3.5c0.51,-0.51 1.25,-1.22 1.76,-1.73 0.51,-0.51 1.24,-1.23 1.74,-1.75l13.92 -13.88c2.85,-2.8 3.24,-3.2 5.27,-5.2 0.51,-0.51 1.25,-1.22 1.76,-1.73l19.13 -19.12c0.51,-0.51 1.25,-1.22 1.75,-1.72l13.96 -13.9c0.5,-0.5 1.22,-1.23 1.73,-1.73l43.99 -43.02c0.52,-0.5 1.28,-1.2 1.79,-1.7l53.14 -51.28c0.51,-0.49 1.24,-1.21 1.75,-1.7l117.09 -112.54c0.52,-0.5 1.28,-1.19 1.8,-1.69 0.52,-0.51 1.28,-1.2 1.78,-1.69 0.52,-0.49 1.25,-1.22 1.77,-1.72l37.16 -35.88c0.51,-0.49 1.27,-1.19 1.78,-1.69 1.9,-1.82 2.51,-2.42 5.34,-5.11l5.35 -5.08c0.52,-0.51 1.25,-1.22 1.78,-1.71l33.31 -29.3c0.52,-0.5 1.28,-1.2 1.8,-1.7l3.52 -3.43c0.52,-0.5 1.24,-1.24 1.75,-1.74 0.53,-0.5 1.27,-1.2 1.78,-1.7l15.81 -15.53c0.51,-0.51 1.21,-1.26 1.72,-1.77 14.41,-14.6 24.47,-42.69 15.77,-64.06l-55.64 -58.54c-0.51,-0.5 -1.24,-1.23 -1.75,-1.73l-8.8 -8.58c-0.51,-0.5 -1.26,-1.21 -1.77,-1.71l-40.46 -39.62c-0.5,-0.5 -1.24,-1.21 -1.75,-1.7l-27.93 -27.7c-6.07,-5.31 0.62,0.45 -5.95,-4.5l-110.51 -108.67c-14.6,-14.01 -29.01,-28.77 -51.89,-22.23 -11.78,3.36 -21.08,11.7 -29.15,19.28l-116.07 110.05c-3.79,3.59 -3.46,3.26 -7.16,6.82l-10.57 10.29c-0.51,0.5 -1.26,1.21 -1.77,1.71 -1.41,1.39 -2.81,2.8 -5.24,5.21l-41.96 41.52c-0.51,0.5 -1.25,1.22 -1.76,1.73l-12.26 12.1c-3.03,2.98 -3.01,2.93 -5.29,5.16l-24.64 24.08c-0.52,0.5 -1.27,1.2 -1.78,1.69l-47.3 43.15c-2.49,2.44 -3.63,3.59 -5.23,5.16 -0.51,0.49 -1.25,1.2 -1.77,1.69l-21.21 20.62c-0.72,0.71 -2.76,2.76 -3.49,3.45l-22.68 22.54c-0.5,0.51 -1.23,1.23 -1.74,1.73l-22.67 22.61c-1.53,1.51 -2.85,2.79 -5.28,5.18l-96.55 91.31c-0.52,0.48 -1.21,1.25 -1.72,1.74l-12.26 12.07c-2.81,2.71 -3.37,3.26 -5.33,5.14 -0.51,0.5 -1.26,1.2 -1.77,1.7l-95.93 95.46c-0.51,0.5 -1.25,1.22 -1.75,1.72l-29.89 29.23c-3.22,3.12 -4.79,4.66 -8.83,8.56l-8.84 8.58c-0.52,0.5 -1.28,1.2 -1.79,1.69l-52.73 48.21c-0.54,0.46 -1.28,1.16 -1.8,1.65l-69.67 69.52c-2.6,2.59 -3.43,3.41 -5.24,5.19 -0.5,0.49 -1.24,1.2 -1.74,1.69 -0.52,0.51 -1.23,1.24 -1.74,1.73l-65.18 63.58c-0.73,0.7 -2.86,2.68 -3.59,3.37 -0.52,0.49 -1.25,1.22 -1.76,1.72l-8.81 8.62c-0.51,0.5 -1.26,1.21 -1.77,1.7 -0.52,0.5 -1.27,1.2 -1.78,1.7l-24.82 23.9c-0.51,0.5 -1.26,1.2 -1.77,1.69l-29.72 25.91c-0.52,0.51 -1.16,1.31 -1.67,1.82l-106.78 105.5c-0.52,0.49 -1.27,1.19 -1.78,1.69l-8.84 8.53c-0.52,0.49 -1.25,1.22 -1.77,1.72l-61.13 60.73c-15.92,23.72 -14.14,38.39 4.68,61.79 0.46,0.56 1.11,1.35 1.57,1.93l19.23 19c0.54,0.46 1.23,1.22 1.75,1.69 0.53,0.48 1.21,1.26 1.73,1.76l10.78 10.13c0.53,0.49 1.27,1.2 1.8,1.7l49.02 48.36c0.52,0.5 1.25,1.23 1.77,1.74l10.48 10.37c2.62,2.62 3.51,3.55 5.2,5.24 0.52,0.51 1.25,1.23 1.77,1.74 0.5,0.5 1.21,1.25 1.72,1.75l41.8 41.69c1.24,1.21 3.01,2.87 5.31,5.11 0.72,0.7 2.8,2.74 3.52,3.45 15.96,15.59 32,34.55 50.28,47.18l75.1 71.03c0.71,0.71 2.77,2.75 3.49,3.46l3.45 3.51c2.66,2.68 3.51,3.48 5.24,5.21l73.36 72.77c2.03,1.95 2.38,2.32 5.32,5.13l14.16 13.67c0.51,0.51 1.25,1.22 1.76,1.72l49.17 44.8c0.51,0.5 1.23,1.24 1.74,1.73l57.75 57.03c0.72,0.7 2.81,2.74 3.53,3.45l114.09 112.12c0.51,0.49 1.19,1.27 1.7,1.76l45.23 41.73c0.52,0.5 1.23,1.24 1.75,1.74l63.15 62.15c0.51,0.5 1.27,1.2 1.78,1.69l5.27 5.14c0.52,0.5 1.26,1.2 1.78,1.72l53.06 51.34c0.51,0.5 1.24,1.23 1.75,1.72l111.96 107.27c0.5,0.5 1.24,1.21 1.74,1.72l79.58 73.47c0.52,0.5 1.25,1.22 1.78,1.71l29.87 29.26c0.52,0.51 1.24,1.24 1.76,1.74 0.52,0.5 1.24,1.24 1.76,1.75l7.02 6.93c0.5,0.5 1.25,1.2 1.76,1.7 0.51,0.51 1.25,1.21 1.76,1.71l7 6.9c2.75,2.71 3.38,3.34 5.26,5.2 0.52,0.5 1.26,1.2 1.78,1.7l6.95 6.95c0.51,0.51 1.21,1.25 1.73,1.76l43.48 36.52c0.69,0.33 1.51,0.87 2.2,1.19 14.07,6.15 30.67,0.76 43.06,-8.63l58.56 -56.28c0.51,-0.5 1.22,-1.24 1.73,-1.74 2.8,-2.78 3.31,-3.26 5.27,-5.2l8.71 -8.67c0.7,-0.71 2.77,-2.74 3.49,-3.45l150.06 -145.71c0.51,-0.5 1.26,-1.21 1.78,-1.7 0.51,-0.5 1.24,-1.22 1.75,-1.72 0.52,-0.51 1.24,-1.24 1.76,-1.73 0.52,-0.5 1.27,-1.2 1.78,-1.7l5.26 -5.15c0.5,-0.5 1.26,-1.2 1.77,-1.7 0.5,-0.5 1.25,-1.22 1.76,-1.72l13.67 -14.26c17.95,-19.84 16.89,-52.65 -1.72,-73.97l-25.93 -26.29c-0.72,-0.7 -2.83,-2.68 -3.55,-3.4l-7.04 -6.9c-0.51,-0.5 -1.23,-1.24 -1.74,-1.74 -0.51,-0.49 -1.23,-1.22 -1.74,-1.73l-35.39 -30.72c-0.56,-0.45 -1.32,-1.13 -1.86,-1.61l-13.96 -13.88c-0.51,-0.5 -1.25,-1.22 -1.76,-1.71l-70.71 -68.47c-0.51,-0.49 -1.23,-1.23 -1.74,-1.73 -0.51,-0.5 -1.26,-1.2 -1.77,-1.7 -0.51,-0.5 -1.27,-1.21 -1.78,-1.71l-59.48 -58.86c-0.51,-0.51 -1.24,-1.23 -1.75,-1.74l-27.64 -24.51c-0.52,-0.51 -1.25,-1.23 -1.77,-1.73l-88.53 -85.44c-1.47,-1.44 -2.89,-2.84 -5.24,-5.16l-33.29 -32.84c-0.5,-0.5 -1.22,-1.23 -1.72,-1.74l-6.92 -7.01c-0.51,-0.51 -1.24,-1.24 -1.75,-1.75l-3.5 -3.49c-0.51,-0.51 -1.23,-1.24 -1.74,-1.75l-5.23 -5.18c-0.51,-0.5 -1.22,-1.23 -1.72,-1.73l-29.79 -29.36c-0.51,-0.51 -1.24,-1.24 -1.75,-1.74l-3.43 -3.54c-0.53,-0.49 -1.28,-1.19 -1.82,-1.65l-116.06 -110.15c-0.71,-0.71 -2.8,-2.75 -3.51,-3.45 -0.51,-0.51 -1.22,-1.25 -1.73,-1.76l-6.95 -6.94c-0.5,-0.51 -1.22,-1.25 -1.73,-1.76l-48.87 -48.52c-0.52,-0.5 -1.25,-1.22 -1.77,-1.73l-12.33 -12.02c-0.51,-0.49 -1.27,-1.19 -1.78,-1.69l-28.06 -24.08c-15.58,-13.59 6.12,5.74 -3.51,-3.46 -0.52,-0.5 -1.25,-1.22 -1.77,-1.73l-21.29 -20.47c-0.51,-0.49 -1.26,-1.2 -1.78,-1.69l-31.8 -30.86c-0.52,-0.49 -1.26,-1.2 -1.77,-1.7 -0.52,-0.49 -1.28,-1.2 -1.79,-1.69l-42.44 -41.29c-3.52,-2.78 -6.24,-3.8 -9.43,-6.12zm3393.21 -134.53c4.29,4.22 1.21,1.46 5.28,5.15l28.45 23.7c2.14,2.02 4.37,4.09 5.38,5.08l74.7 74.91c12.04,12.19 24.74,18.29 10.76,34.16l-3.43 3.53c-0.5,0.52 -1.28,1.2 -1.78,1.71 -5.56,5.61 -9.42,9.52 -15.66,15.8l-31.65 30.97c-2.53,2.46 -3.61,3.5 -5.31,5.14l-7.05 6.9c-0.52,0.51 -1.23,1.25 -1.74,1.75 -0.51,0.5 -1.26,1.2 -1.77,1.7l-47.75 42.68c-20.75,19.94 -40.1,38.94 -61.55,60.25l-110.27 105.45c-0.72,0.7 -2.83,2.73 -3.55,3.43l-8.8 8.59c-0.73,0.7 -2.84,2.68 -3.57,3.38l-47.46 46.51c-5.91,5.77 -8.13,7.9 -14.02,13.76 -21.45,21.35 -40.32,40.26 -61.16,60.66l-28.33 27.36c-0.51,0.5 -1.21,1.24 -1.72,1.75l-199.99 193.22c-0.51,0.49 -1.22,1.23 -1.73,1.72l-22.94 22.22c-0.56,0.47 -1.37,1.1 -1.94,1.56l-11.69 9.24c-0.54,0.47 -1.25,1.2 -1.77,1.69 -0.53,0.48 -1.24,1.23 -1.75,1.72l-17.56 17.24c-0.51,0.5 -1.23,1.23 -1.74,1.74l-61.33 60.44c-3.44,3.4 -3.62,3.57 -7.04,6.95l-90.11 83.8c-23.24,22.49 -102.28,93.39 -110.63,111.48l-13.06 -0.03c-5.83,-13.18 -17.55,-24.69 -27.38,-34.68 -0.5,-0.51 -1.25,-1.22 -1.74,-1.73l-78.23 -74.83c-3.87,-3.56 -1.09,-1.02 -5.33,-5.16l-10.52 -10.38c-0.73,-0.7 -2.82,-2.7 -3.55,-3.41l-14.02 -13.81c-12.27,-12.31 -25.94,-17.23 -25.64,-35.92l191.02 -180.25c0.5,-0.5 1.21,-1.23 1.72,-1.73l17.55 -17.23c0.72,-0.71 2.72,-2.81 3.43,-3.53l24.31 -20.89c0.53,-0.48 1.25,-1.22 1.78,-1.71l21.09 -20.68c0.72,-0.7 2.83,-2.7 3.55,-3.41 0.51,-0.49 1.23,-1.23 1.74,-1.73l124.86 -122.2c0.52,-0.51 1.23,-1.25 1.74,-1.76 0.51,-0.5 1.24,-1.23 1.75,-1.73l35.06 -34.48c1.74,-1.71 4.42,-4.34 5.28,-5.2l38.29 -34.77c0.51,-0.5 1.22,-1.24 1.73,-1.74l10.53 -10.36c0.51,-0.5 1.26,-1.2 1.77,-1.71 0.51,-0.49 1.23,-1.23 1.74,-1.72l28.15 -27.52c3.67,-3.58 7.02,-6.8 10.61,-10.28 14.81,-14.4 28.29,-27.89 43.9,-43.08l45.59 -44.92c0.71,-0.7 2.8,-2.7 3.51,-3.41l3.44 -3.51c0.51,-0.5 1.24,-1.22 1.76,-1.72 2.61,-2.54 0.31,-0.74 5.36,-5.11l93.05 -87.85c8.27,-8.08 13.1,-12.62 21.32,-20.47l17.63 -17.14c2.11,-2.08 4.16,-4.06 5.28,-5.17l29.19 -36.35c6.44,-23.59 -4.83,-40.21 -18.36,-55.71 -14.25,-16.31 -33.43,-29.5 -48.98,-45.04l-5.2 -5.24c-0.71,-0.71 -2.81,-2.72 -3.52,-3.43 -0.51,-0.5 -1.22,-1.23 -1.73,-1.73 -1.77,-1.75 -2.6,-2.52 -5.27,-5.18 -2.77,-2.74 -3.37,-3.37 -5.23,-5.23l-15.75 -15.52c-0.51,-0.5 -1.24,-1.23 -1.75,-1.72 -1.86,-1.8 -2.53,-2.42 -5.33,-5.14l-86.31 -84.2c-0.52,-0.5 -1.25,-1.22 -1.76,-1.72l-26.01 -22.7c-0.58,-0.45 -1.41,-1.06 -1.97,-1.53l-140.65 -137.65c-1.61,-1.57 -2.7,-2.66 -5.29,-5.18l-80.54 -76.03c-0.51,-0.5 -1.23,-1.23 -1.74,-1.73l-15.73 -15.59c-0.51,-0.51 -1.25,-1.22 -1.76,-1.73 -0.5,-0.51 -1.22,-1.25 -1.72,-1.76 -0.51,-0.51 -1.22,-1.26 -1.73,-1.76l-10.54 -10.34c-2.68,-2.62 -3.5,-3.46 -5.24,-5.19l-119.58 -117.01c-1.91,-1.87 -2.4,-2.38 -5.28,-5.17l-50.39 -47.01c-3.11,-3.03 -3.92,-3.77 -7.1,-6.83l-15.9 -15.38c-1.91,-1.86 -2.51,-2.39 -5.34,-5.14 -2.96,-2.88 -3.32,-3.26 -5.27,-5.19l-88.92 -81.64c-14.4,-13.89 -12.63,-17.53 -0.1,-27.2l66.74 -62.24c2.35,-2.3 3.82,-3.71 5.28,-5.15 0.51,-0.51 1.23,-1.24 1.73,-1.75l22.59 -22.62c0.5,-0.52 1.25,-1.24 1.76,-1.75 0.5,-0.51 1.21,-1.26 1.72,-1.77l20.91 -20.85c0.5,-0.51 1.21,-1.25 1.71,-1.75l14.01 -13.81c1.07,-1.06 5.13,-5.06 5.26,-5.18 0.51,-0.51 1.22,-1.25 1.72,-1.77 0.51,-0.52 1.24,-1.23 1.74,-1.75l6.73 -7.32c2.65,-2.84 -0.06,-1.28 5.16,-5.43 6.21,-4.92 -2.31,-1.2 6.48,-3.89 16.18,-4.94 13.75,4.61 19.26,11.77l126.59 120.72c4.67,4.42 6.03,5.73 10.66,10.25l152.29 146.9c0.52,0.5 1.24,1.22 1.76,1.73l135.19 132.76c0.51,0.5 1.27,1.2 1.78,1.69l7.08 6.84c1.65,1.59 2.75,2.68 5.29,5.14 2.39,2.31 3.76,3.62 5.32,5.13l169.84 164.16c3.48,3.43 6.99,6.91 10.53,10.35l33.52 32.64c0.52,0.5 1.23,1.24 1.74,1.74l97.53 93.76c0.72,0.71 2.82,2.72 3.54,3.43l14.08 13.79c0.51,0.5 1.22,1.23 1.73,1.73l65.6 63.16c0.52,0.5 1.28,1.2 1.78,1.69 1.16,1.13 2.99,3.01 5.24,5.23zm-1166.35 -642.34l204.81 198.12c0.51,0.5 1.26,1.2 1.77,1.71l227 218.41c0.52,0.49 1.26,1.21 1.78,1.71l21.21 20.53c0.51,0.51 1.26,1.21 1.77,1.71 2.11,2.05 2.31,2.27 5.28,5.15l43.85 43.11c0.93,0.91 3.78,3.75 5.23,5.23l78.39 74.7c0.51,0.51 1.23,1.25 1.74,1.75 0.51,0.5 1.21,1.26 1.72,1.76l165.14 158.43c0.51,0.5 1.22,1.25 1.73,1.75l34.8 28.87 0.71 15.66 -57.03 50.81c-0.52,0.5 -1.24,1.23 -1.75,1.74l-42.38 41.12c-0.51,0.5 -1.27,1.2 -1.78,1.69l-36.96 36.13c-0.52,0.5 -1.23,1.24 -1.75,1.74l-45.31 41.69c-0.51,0.51 -1.25,1.21 -1.77,1.71l-8.8 8.58c-0.51,0.5 -1.26,1.2 -1.77,1.7 -0.51,0.5 -1.25,1.22 -1.76,1.73l-158.2 154.98c-6.71,5.98 -7.97,5.38 -13.88,10.42l-28.07 27.63c-0.51,0.51 -1.24,1.22 -1.74,1.73 -0.5,0.51 -1.21,1.25 -1.73,1.75l-5.24 5.21c-0.5,0.5 -1.22,1.23 -1.72,1.74l-19.18 19.09c-0.5,0.52 -1.21,1.26 -1.72,1.76 -0.51,0.51 -1.22,1.26 -1.73,1.76 -0.51,0.51 -1.26,1.22 -1.76,1.72 -0.51,0.52 -1.25,1.23 -1.75,1.73l-19.24 19.04c-0.51,0.49 -1.26,1.2 -1.77,1.7l-100.5 97.87c-0.52,0.49 -1.26,1.21 -1.77,1.71 -0.51,0.49 -1.26,1.2 -1.77,1.69l-225.95 219.53c-10.98,15.96 -9.71,25.1 -8.46,48.68l46.54 46.66c0.53,0.5 1.28,1.19 1.8,1.68l87.27 86.64c0.51,0.5 1.26,1.2 1.77,1.7l8.81 8.63c0.72,0.72 2.77,2.77 3.48,3.48 0.51,0.5 1.27,1.2 1.77,1.7l31.46 31.19c0.5,0.5 1.21,1.24 1.72,1.74 0.5,0.51 1.24,1.21 1.75,1.73l36.49 36.58c2.22,2.22 3.96,3.96 5.24,5.23l31.8 30.78c0.53,0.49 1.21,1.27 1.76,1.74 0.56,0.48 1.32,1.18 1.9,1.64l21.34 16.23c21.1,1.29 31.82,-1.38 46.38,-13.73l21.49 -20.3c0.71,-0.73 2.77,-2.79 3.48,-3.51l46.95 -43.48c0.53,-0.49 1.2,-1.26 1.72,-1.76l33.53 -32.59c2.87,-2.76 3.42,-3.3 5.32,-5.13l33.37 -32.75c0.51,-0.51 1.26,-1.21 1.77,-1.72l35 -34.57c0.5,-0.49 1.26,-1.2 1.77,-1.7l5.24 -5.17c0.51,-0.5 1.26,-1.21 1.78,-1.71l10.65 -10.25c0.52,-0.49 1.28,-1.19 1.79,-1.69l65.09 -60.13c1.43,-1.41 2.95,-2.9 5.25,-5.16l26.44 -25.8c0.51,-0.5 1.27,-1.2 1.78,-1.69 0.52,-0.5 1.25,-1.23 1.76,-1.73 0.52,-0.5 1.25,-1.22 1.76,-1.72l24.46 -24.22c0.51,-0.51 1.23,-1.26 1.73,-1.77 0.51,-0.5 1.21,-1.25 1.72,-1.76l45.55 -44.9c0.51,-0.51 1.21,-1.25 1.72,-1.76l57.75 -53.66c0.51,-0.5 1.25,-1.2 1.75,-1.71l12.27 -12.09c0.53,-0.49 1.27,-1.2 1.78,-1.7 0.53,-0.49 1.25,-1.22 1.76,-1.71l40.59 -39.4c0.52,-0.5 1.24,-1.23 1.75,-1.73 0.51,-0.51 1.23,-1.24 1.75,-1.75 0.51,-0.5 1.26,-1.2 1.78,-1.7l177.02 -170.91c0.52,-0.5 1.26,-1.23 1.77,-1.73 0.52,-0.5 1.27,-1.2 1.79,-1.69l36.89 -36.17c0.5,-0.52 1.21,-1.25 1.71,-1.77l80.5 -79.58c0.51,-0.5 1.26,-1.2 1.77,-1.7l12.41 -11.99c0.52,-0.49 1.28,-1.19 1.8,-1.68l59.9 -54.88c0.52,-0.49 1.28,-1.19 1.78,-1.69l28.18 -27.54c0.52,-0.5 1.23,-1.24 1.74,-1.75l38.58 -37.93c1.44,-1.42 2.85,-2.85 5.22,-5.21l36.76 -36.31c0.72,-0.7 2.83,-2.7 3.56,-3.41l49.47 -47.93c8.28,-6.21 2.03,-0.21 9.96,-7.45l6.94 -7c0.51,-0.51 1.24,-1.23 1.75,-1.72l5.29 -5.15c19.04,-18.62 34.45,-42.08 25.62,-70.53 -3.11,-10.03 -16.22,-20.29 -23.37,-27.5l-3.49 -3.49c-0.51,-0.51 -1.26,-1.22 -1.77,-1.72 -0.52,-0.51 -1.24,-1.24 -1.75,-1.75l-10.6 -10.25c-1.89,-1.83 -2.53,-2.45 -5.35,-5.15 -2.52,-2.42 -3.68,-3.51 -5.34,-5.11l-8.79 -8.55c-0.51,-0.49 -1.25,-1.2 -1.76,-1.69l-93.37 -87.62c-0.53,-0.5 -1.25,-1.22 -1.77,-1.72l-40.09 -39.91c-0.51,-0.5 -1.23,-1.24 -1.73,-1.75l-8.71 -8.71c-1.68,-1.69 -2.59,-2.65 -5.17,-5.25 -3.57,-3.59 -3.32,-3.34 -6.94,-6.96l-86.13 -80.87c-0.51,-0.49 -1.23,-1.22 -1.74,-1.72l-127.71 -126.35c-3.21,-3.14 -3.76,-3.68 -7.01,-6.9l-42.25 -41.25c-0.51,-0.5 -1.26,-1.2 -1.77,-1.69l-147.46 -141.35c-0.52,-0.5 -1.24,-1.23 -1.76,-1.73l-45.85 -44.63c-0.54,-0.46 -1.34,-1.12 -1.89,-1.58l-24.06 -21.17c-0.51,-0.49 -1.25,-1.2 -1.76,-1.7 -0.51,-0.5 -1.22,-1.23 -1.73,-1.74l-106.99 -105.34c-2.38,-2.34 -3.85,-3.75 -5.24,-5.13l-86.18 -80.84c-0.5,-0.5 -1.25,-1.21 -1.75,-1.71l-21.35 -20.44c-0.52,-0.49 -1.25,-1.22 -1.77,-1.71l-23.08 -22.18c-0.51,-0.5 -1.26,-1.21 -1.77,-1.71l-26.22 -25.96c-0.5,-0.51 -1.24,-1.21 -1.75,-1.71l-15.71 -15.62c-0.5,-0.5 -1.22,-1.26 -1.72,-1.76l-17.45 -17.31c-0.51,-0.51 -1.26,-1.22 -1.76,-1.72l-69.86 -65.92c-14.83,-9.26 -31.47,-18.58 -50.26,-9.28l-27.22 24.48c-0.71,0.7 -2.77,2.72 -3.51,3.43 -0.51,0.5 -1.26,1.2 -1.77,1.7l-52.6 51.81c-0.51,0.51 -1.26,1.21 -1.76,1.71l-14 13.83c-1.61,1.59 -2.8,2.78 -5.22,5.21l-15.58 15.78c-0.5,0.51 -1.25,1.23 -1.76,1.75l-24.19 24.46c-0.52,0.5 -1.26,1.22 -1.77,1.72l-110.42 105.34c-0.5,0.51 -1.27,1.18 -1.75,1.7l-13 18.39c-8.8,11.96 -6.26,28.12 -5.22,44.34zm-1096.35 1702.4l-9.79 6.28c-1.23,25.58 -20.32,73.39 -32.07,99.23l-31.92 89.46c-1.32,4.27 -0.98,3.92 -2.68,8.21l-24.38 65.5c-4.17,15.07 -3.76,17.35 -9.25,29.62l-45.12 132.22c-0.7,1.63 -2.24,5.22 -3.18,7.24 -0.33,0.73 -0.81,1.62 -1.14,2.35l-18.05 58.68c-0.36,0.57 -1.09,1.32 -1.46,1.88l-2.84 3.94c-6.05,11.05 -2.38,18.29 -9.12,29.63 -5.87,9.91 -10.95,25.43 -4.57,39.49 5.93,13.03 10.85,15.45 23.17,22.3 14.67,8.17 34.56,10.71 49.94,3.09l10.68 -6.81c18.33,-18.13 25.48,-62.29 34.8,-83.33 0.95,-2.15 2.04,-4.79 3.17,-7.25l23.44 -70.94c0.27,-0.7 0.77,-1.51 1.05,-2.19l119.19 -336.48c12.3,-28.4 27.48,-83.04 45.19,-121.7 5.43,-11.86 4.25,-20.93 9.05,-29.78 10.09,-18.62 5.82,-6.57 10.85,-31.03 3.41,-16.54 11.45,-26.27 17.26,-40.93 5.95,-15.05 2.01,-16.44 11.16,-30.99l2.49 -3.93c1.78,-4.01 1.26,-3.19 2.11,-7.8l16.89 -50.34c3.13,-7.03 0.37,1.11 3.16,-6.88 2.26,-6.46 3.07,-11.79 4.87,-16.5l4.11 -9.42c5.76,-12.36 4.88,-23.74 9.8,-36.16 0.29,-0.72 0.8,-1.52 1.11,-2.21l35.93 -99.62c1.11,-2.44 6.35,-13.9 6.43,-14.12 2.07,-5.66 1.94,-8.57 3.77,-14.11l21.94 -54c0.29,-0.67 0.79,-1.48 1.06,-2.18 2.35,-6.2 2,-10.86 3.84,-17.52 4.43,-16.02 1.38,0.04 5.11,-11.93l43.24 -116.96c0.35,-0.72 0.84,-1.62 1.18,-2.34l21.41 -62.33c3.67,-8.45 0.1,1.88 3.14,-6.9l4.96 -16.37c8.71,-23.37 19.17,-47 24.74,-72.32l9.92 -28.91c2.32,-6.34 -0.71,3.91 3.05,-7.04 1.16,-3.37 1.35,-5.56 2.32,-8.63 7.54,-23.52 20.3,-47.78 26.47,-70.74 4.29,-15.98 3.22,-16.44 9,-29.38l7.14 -16.96c0.29,-0.71 0.76,-1.57 1.03,-2.28l74.06 -204.37c0.34,-0.74 0.82,-1.63 1.14,-2.36 10.51,-22.98 10.88,-43.78 21.19,-66.19l32.8 -88.66c1.9,-9.31 0.86,-6.66 3.92,-13.7l16.63 -42.41c1.37,-5.07 1.2,-11 2.68,-15.49l6.37 -9.96c6.7,-10.76 7.65,-21.75 13.75,-34.94l10.82 -38.2c0.33,-0.73 0.79,-1.64 1.13,-2.37l8.23 -19.47c0.33,-0.74 0.79,-1.61 1.11,-2.35l67.58 -189.94c0.32,-0.79 0.64,-1.77 0.97,-2.56l42.94 -120.6c1.98,-5.34 1.89,-3.92 4.51,-12.57l15.07 -44.65c1.94,-7.16 2.21,-5.84 2.85,-7.39 0.3,-0.71 0.77,-1.54 1.07,-2.26l54.04 -151.24c0.04,-0.07 3.01,-6.9 3.1,-7.09l7.18 -20.3c0.3,-0.99 0.53,-1.95 0.86,-2.9 0.3,-0.88 0.72,-1.77 1.04,-2.6l44.69 -133.3c0.29,-0.7 0.81,-1.54 1.11,-2.21l9.52 -21.63c2.94,-6.81 8.49,-23.01 11.45,-30.06l49.87 -144.95c4.02,-14.08 9.72,-32.17 2.32,-47.33 -6.54,-13.4 -8.73,-14.03 -20.52,-21.35l-6.06 -4.33c-4.51,-4.2 -1.11,-0.18 -4.25,-5.5l-30.4 -0.11c-19.89,27.16 -15.68,-9.21 -40.1,63.32l-17.86 44.45c-1.39,4.4 -1.78,8.8 -2.41,13.32 -0.44,3.28 -0.71,8.71 -1.68,11.48l-2.09 3.92c-0.3,0.54 -0.99,1.3 -1.32,1.83 -0.35,0.54 -1.1,1.27 -1.45,1.81l-15.57 33.22c-5.57,10.04 -6.06,28.32 -10.6,38.42 -2.35,5.23 0.15,-0.07 -2.08,5.03l-11.19 33.89c-0.32,0.84 -0.72,1.72 -1.02,2.6l-90.91 249.65c-1.85,7.76 -2.4,7.07 -3.68,10.36 -5.74,14.76 -10.17,40.68 -16.08,50.19 -6.71,10.8 -4.32,4.59 -8.78,19.28l-82.16 230.56c-0.45,0.97 -1.77,3.88 -2.2,4.84 -0.3,0.69 -0.8,1.53 -1.09,2.22 -7.85,18.7 -8.35,37.71 -17.89,52.13l-14.56 41.3c-6.65,28.61 -60.56,164.31 -75.05,209.57l-17.76 45c-6.58,14.78 -10,41.58 -23.37,70.89l-49.96 137.78c-3.51,10.72 -2.75,10.28 -6.22,18.02l-24.03 63.16c-0.32,0.73 -0.82,1.54 -1.12,2.27l-10.58 30.98c-2.83,11.88 -2.6,10.12 -5.84,18.76l-16.09 42.97c-0.32,0.75 -0.78,1.65 -1.1,2.39l-10 31.68c-1.35,3.18 -2.85,6.7 -4.23,9.79 -3.78,8.47 -0.54,-3.72 -4.06,9.57 -2.76,10.41 -1.85,15.24 -7.64,24.05 -10.77,16.39 -14.5,44.25 -22.94,64.03 -0.3,0.7 -0.78,1.55 -1.08,2.26l-36.78 102.17c-4.9,13.97 -8.06,29.83 -13.34,42.84l-21.57 54.3c-2.72,8.31 -3.04,14.49 -6.02,22.41l-62.89 169.99c-11.05,25.92 -15.79,54.79 -27.6,80.64l-62.3 174.11c-3.68,9.35 -2.27,9.87 -4.93,20.46 -2.74,10.88 -0.38,1.59 -3.89,9.23l-31.33 92.39z"/>
  <rect class="fil1 str1" x="89.2" y="89.2" width="5797.98" height="5797.98" rx="1783.99" ry="1783.99"/>
 </g>
</svg>
