<?xml version="1.0" encoding="UTF-8"?>
<!DOCTYPE svg PUBLIC "-//W3C//DTD SVG 1.1//EN" "http://www.w3.org/Graphics/SVG/1.1/DTD/svg11.dtd">
<!-- Creator: CorelDRAW -->
<svg xmlns="http://www.w3.org/2000/svg" xml:space="preserve" width="156.783mm" height="29.9999mm" version="1.1" style="shape-rendering:geometricPrecision; text-rendering:geometricPrecision; image-rendering:optimizeQuality; fill-rule:evenodd; clip-rule:evenodd"
viewBox="0 0 15662.16 2996.9"
 xmlns:xlink="http://www.w3.org/1999/xlink"
 xmlns:xodm="http://www.corel.com/coreldraw/odm/2003">
 <defs>
  <style type="text/css">
   <![CDATA[
    .fil0 {fill:#4ADE80}
    .fil2 {fill:#4ADE80;fill-rule:nonzero}
    .fil1 {fill:#E6EDF3;fill-rule:nonzero}
   ]]>
  </style>
 </defs>
 <g id="Layer_x0020_1">
  <metadata id="CorelCorpID_0Corel-Layer"/>
  <path class="fil0" d="M2710 1988.68c12.57,-94.51 -62.73,-173.32 -152.62,-183.57 -106.04,-12.08 -185.42,59.03 -197.36,144.03 -13.82,98.41 64.68,175.06 154.87,185.04 103.82,11.47 183.91,-61.32 195.11,-145.5zm-926.15 -1834.77c-89.6,12.49 -164.7,89.48 -148.69,189.58 13.09,81.83 97.41,153.92 200.95,137.97 90.02,-13.86 162.46,-89.26 147.38,-188.44 -13.53,-88.99 -102.58,-152.66 -199.64,-139.12zm285.24 2244.3c10.7,83.92 92.03,156.64 196.23,144.39 90.37,-10.61 167.5,-87.06 153.46,-185.92 -12.02,-84.6 -92.28,-153.69 -196.06,-142.85 -89.64,9.38 -166.02,87.21 -153.63,184.38zm-793.82 -2342c-91.22,8.08 -168.2,86.61 -156.68,183.6 10.09,84.84 91.46,156.8 195.29,145.72 90.64,-9.67 165.76,-85.45 154.88,-182.35 -9.65,-85.87 -90.27,-156.11 -193.49,-146.97zm1085.36 961.1c6.21,86.45 89.85,157.16 190.42,150.25 91.63,-6.31 170.03,-84.99 160.52,-179.98 -8.71,-87.09 -88.77,-158.58 -191.6,-150.23 -92.97,7.55 -166.35,82.66 -159.35,179.96zm-140.77 -589.98c-89.46,11.91 -164.19,87.86 -150.34,186.37 11.85,84.16 94.81,155.18 199.17,141.34 89.33,-11.85 165.28,-89.49 149.68,-188.33 -13.07,-82.72 -94.68,-153.21 -198.52,-139.39zm242.13 1068.74c4.73,87.81 87.93,159.8 188.24,153.81 92.43,-5.51 168.61,-80.21 163.36,-175.18 -4.88,-88.32 -87.55,-162.61 -188.57,-155.31 -94.73,6.84 -168.23,80.34 -163.03,176.68zm-523.84 1179.1c8.79,-37.82 -7.01,-75.99 -25.87,-99.4 -16.42,-20.37 -45.41,-40.87 -82.81,-46.87 -78.36,-12.59 -141.11,38.44 -153.94,99.99 -15.93,76.42 42.93,136.53 107.71,147.32 81.98,13.65 140.66,-39.75 154.92,-101.04zm-772.29 87.05c7.18,60.92 66.79,113.81 141.23,106.29 66.6,-6.73 122.42,-62.35 114.31,-133.7 -7.01,-61.67 -67.33,-114.79 -142.7,-106.56 -65.19,7.13 -121.23,62.84 -112.84,133.97zm-286.79 -94.96c9.45,-58.21 -33.32,-101.86 -82.71,-110.45 -62.34,-10.85 -111.25,31.95 -119.5,78.81 -10.41,59.08 34.4,103.61 85.49,111.15 59.68,8.79 109.08,-32.48 116.72,-79.51zm-617.6 -278.95c5.38,38.59 43.17,73.28 92.88,66.61 107.62,-14.46 86.45,-166.14 -22.5,-153.62 -41.24,4.74 -76.63,42.32 -70.39,87.01zm-261.27 -417.43c2,25.9 26.27,46.28 55.87,44.02 26.45,-2.02 48.46,-24.26 46.16,-51.8 -5.14,-61.7 -107,-56.45 -102.03,7.77z"/>
  <path class="fil1" d="M3822.88 2242.46l0 -2128.74 478.24 0 0 2128.74 -478.24 0zm419.92 0l0 -419.92 892.32 0 0 419.92 -892.32 0z"/>
  <path class="fil2" d="M6202.41 2297.86c-139.98,0 -264.4,-21.87 -373.27,-65.61 -108.86,-43.73 -200.72,-103.51 -275.57,-179.34 -74.84,-75.82 -131.7,-162.81 -170.58,-260.99 -38.89,-98.17 -58.33,-201.69 -58.33,-310.56l0 -67.07c0,-110.81 19.93,-216.28 59.79,-316.39 39.85,-100.12 98.17,-188.09 174.96,-263.91 76.79,-75.81 169.62,-135.59 278.48,-179.34 108.87,-43.74 230.37,-65.61 364.51,-65.61 138.03,0 260.98,21.87 368.88,65.61 107.9,43.74 199.75,103.52 275.57,179.34 75.82,75.82 134.14,163.79 174.97,263.91 40.83,100.12 61.24,205.59 61.24,316.39l0 67.07c0,108.87 -19.44,212.39 -58.32,310.56 -38.88,98.18 -95.75,185.17 -170.59,260.99 -74.84,75.82 -166.7,135.6 -275.57,179.34 -108.87,43.74 -234.26,65.61 -376.17,65.61zm0 -393.66c91.37,0 167.19,-19.44 227.46,-58.32 60.26,-38.89 106.43,-93.32 138.51,-163.3 32.08,-69.99 48.12,-147.75 48.12,-233.29 0,-91.37 -16.52,-171.56 -49.58,-240.57 -33.05,-69.02 -80.19,-123.93 -141.42,-164.76 -61.24,-40.83 -135.6,-61.24 -223.08,-61.24 -85.54,0 -159.42,20.41 -221.62,61.24 -62.22,40.83 -109.36,95.74 -141.43,164.76 -32.08,69.01 -48.11,149.21 -48.11,240.57 0,85.54 15.55,163.3 46.65,233.29 31.11,69.98 77.76,124.41 139.98,163.3 62.21,38.88 137.05,58.32 224.54,58.32z"/>
  <path class="fil2" d="M8374.89 2242.46l0 -472.4 -78.74 0 0 -513.23c0,-81.65 -19.44,-142.88 -58.32,-183.71 -38.88,-40.83 -101.09,-61.24 -186.63,-61.24 -42.77,0 -99.15,0.97 -169.14,2.92 -69.98,1.94 -141.91,4.85 -215.79,8.74 -73.87,3.9 -140.94,7.78 -201.2,11.67l0 -393.66c44.7,-3.9 97.2,-7.78 157.47,-11.67 60.26,-3.89 122.47,-6.8 186.63,-8.75 64.15,-1.94 124.41,-2.92 180.79,-2.92 163.3,0 300.84,23.34 412.62,69.99 111.78,46.66 196.84,117.13 255.16,211.41 58.32,94.29 87.48,215.31 87.48,363.06l0 979.8 -370.34 0zm-510.31 40.83c-114.7,0 -215.31,-20.42 -301.82,-61.24 -86.5,-40.83 -154.06,-99.64 -202.66,-176.43 -48.6,-76.79 -72.9,-168.65 -72.9,-275.57 0,-116.64 30.14,-212.39 90.4,-287.23 60.27,-74.84 144.83,-130.26 253.7,-166.22 108.87,-35.96 234.26,-53.94 376.17,-53.94l341.19 0 0 259.53 -344.1 0c-81.66,0 -144.35,19.92 -188.1,59.78 -43.73,39.85 -65.6,93.8 -65.6,161.84 0,64.15 21.87,116.15 65.6,156.01 43.74,39.85 106.44,59.78 188.1,59.78 52.49,0 99.63,-9.23 141.42,-27.7 41.8,-18.47 76.3,-50.06 103.52,-94.77 27.21,-44.71 42.77,-106.93 46.65,-186.63l110.82 116.64c-9.72,110.82 -36.45,204.13 -80.2,279.94 -43.73,75.82 -104,134.14 -180.79,174.97 -76.79,40.82 -170.59,61.24 -281.4,61.24z"/>
  <path class="fil1" d="M9800.84 2294.94c-112.75,0 -215.3,-20.41 -307.64,-61.24 -92.34,-40.82 -172.53,-97.69 -240.57,-170.58 -68.04,-72.9 -120.05,-158.93 -156.01,-258.07 -35.96,-99.15 -53.95,-206.07 -53.95,-320.77l0 -67.07c0,-114.7 17.01,-221.62 51.04,-320.77 34.01,-99.15 83.59,-186.14 148.72,-260.99 65.12,-74.84 143.37,-133.16 234.75,-174.96 91.37,-41.8 193.43,-62.7 306.18,-62.7 128.31,0 239.11,27.7 332.44,83.1 93.31,55.41 166.21,137.06 218.7,244.96 52.49,107.89 81.65,240.57 87.48,398.04l-122.47 -113.72 0 -1096.45 469.49 0 0 2128.74 -370.34 0 0 -661.95 64.15 0c-5.83,151.63 -37.43,280.91 -94.77,387.84 -57.35,106.92 -134.63,188.09 -231.83,243.49 -97.2,55.4 -208.98,83.1 -335.35,83.1zm116.65 -390.75c71.93,0 137.54,-16.04 196.84,-48.12 59.29,-32.08 106.92,-79.22 142.88,-141.42 35.96,-62.22 53.94,-137.06 53.94,-224.54l0 -107.9c0,-85.53 -18.46,-157.47 -55.4,-215.79 -36.93,-58.32 -85.53,-103.03 -145.8,-134.14 -60.27,-31.11 -125.39,-46.65 -195.38,-46.65 -77.76,0 -147.26,19.92 -208.51,59.78 -61.24,39.85 -109.35,94.28 -144.34,163.3 -34.99,69.01 -52.49,149.21 -52.49,240.57 0,93.31 17.49,173.99 52.49,242.03 34.99,68.05 83.59,120.54 145.8,157.47 62.22,36.94 132.2,55.41 209.96,55.41z"/>
  <path class="fil1" d="M11267.63 2242.46l0 -1598.01 466.57 0 0 1598.01 -466.57 0zm-212.87 -1253.91l0 -344.11 679.44 0 0 344.11 -679.44 0zm393.66 -501.57c-87.48,0 -152.12,-22.84 -193.92,-68.52 -41.8,-45.69 -62.7,-103.52 -62.7,-173.51 0,-71.93 20.9,-130.74 62.7,-176.42 41.8,-45.69 106.44,-68.53 193.92,-68.53 87.48,0 152.12,22.84 193.92,68.53 41.8,45.68 62.7,104.49 62.7,176.42 0,69.99 -20.9,127.82 -62.7,173.51 -41.8,45.68 -106.44,68.52 -193.92,68.52z"/>
  <path class="fil1" d="M12165.78 2242.46l0 -1598.01 370.35 0 0 685.28 -26.25 0c0,-163.3 20.9,-299.38 62.7,-408.25 41.8,-108.87 105.47,-190.52 191,-244.96 85.54,-54.43 189.54,-81.65 312.03,-81.65l20.41 0c186.63,0 329.03,60.75 427.2,182.25 98.18,121.5 147.27,305.7 147.27,552.6l0 912.73 -466.57 0 0 -938.97c0,-85.54 -25.27,-155.53 -75.82,-209.96 -50.55,-54.43 -118.59,-81.65 -204.13,-81.65 -87.48,0 -157.95,27.7 -211.41,83.1 -53.46,55.4 -80.19,127.83 -80.19,217.25l0 930.23 -466.58 0z"/>
  <path class="fil1" d="M14233.69 2878.16l-0.4 -393.67c212.94,-6.86 581.07,25.29 759.64,-40.82 78.73,-29.16 136.57,-73.39 173.5,-132.68 36.93,-59.29 48.37,-135.86 55.4,-228.91l12.2 -161.28c0.59,-7.76 -7.06,14.09 -10.74,21.32 -51.52,101.08 -122.95,178.36 -214.33,231.82 -91.37,53.46 -200.23,80.19 -326.59,80.19 -108.88,0 -207.54,-19.92 -295.99,-59.77 -88.45,-39.86 -163.77,-95.75 -225.99,-167.69 -62.21,-71.92 -109.84,-156 -142.89,-252.23 -33.05,-96.23 -49.57,-200.72 -49.57,-313.48l0 -67.07c0,-112.75 17.5,-217.74 52.49,-314.95 34.99,-97.2 85.54,-181.76 151.63,-253.69 66.09,-71.93 144.84,-127.83 236.21,-167.68 91.38,-39.85 192.45,-59.78 303.28,-59.78 128.3,0 239.6,28.19 333.89,84.56 94.28,56.38 168.65,139.01 223.08,247.86 8.09,16.18 15.62,32.87 22.6,50.02l0 0 0.73 -335.78 370.34 0 0 1408.46c0,196.36 -34.98,354.79 -104.97,475.32 -69.98,120.54 -176.44,209.01 -319.32,265.37 -289.06,114.04 -690.94,74.93 -1004.17,84.56zm594.48 -1017.71c71.93,0 137.05,-16.03 195.37,-48.12 58.33,-32.07 104.49,-78.25 138.52,-138.51 34.01,-60.27 51.04,-133.17 51.04,-218.71l0 -84.56c0,-83.59 -17.99,-154.06 -53.95,-211.41 -35.95,-57.35 -83.11,-101.1 -141.42,-131.21 -58.32,-30.14 -120.54,-45.21 -186.63,-45.21 -77.76,0 -146.78,18.48 -207.05,55.41 -60.27,36.94 -106.93,88.46 -139.97,154.55 -33.06,66.09 -49.58,143.86 -49.58,233.29 0,91.37 17.01,169.62 51.03,234.74 34.02,65.13 80.68,114.7 139.98,148.73 59.3,34.01 126.85,51.03 202.67,51.03z"/>
  <polygon class="fil1" points="3955.95,2865.71 3828.39,2399.1 3885.81,2399.1 3983.32,2779.1 3987.81,2779.1 4087.15,2399.1 4150.97,2399.1 4250.31,2779.1 4254.79,2779.1 4352.31,2399.1 4409.72,2399.1 4282.17,2865.71 4223.9,2865.71 4120.93,2493.94 4117.3,2493.94 4014.22,2865.71 "/>
  <path id="_1" class="fil1" d="M4683.54 2872.98c-33.68,0 -62.77,-7.48 -87.14,-22.46 -24.37,-14.96 -43.09,-35.92 -56.24,-62.87 -13.15,-26.95 -19.67,-58.38 -19.67,-94.2 0,-35.81 6.52,-67.46 19.67,-94.84 13.16,-27.47 31.55,-48.86 55.17,-64.25 23.63,-15.39 51.22,-23.1 82.75,-23.1 18.29,0 36.25,3 53.99,9.09 17.75,6.09 34,15.93 48.55,29.51 14.54,13.58 26.19,31.54 34.85,53.88 8.66,22.35 13.05,49.83 13.05,82.44l0 22.78 -269.76 0 0 -46.51 215.02 0c0,-19.67 -3.86,-37.31 -11.77,-52.82 -7.8,-15.5 -18.81,-27.69 -33.25,-36.67 -14.34,-8.98 -31.23,-13.48 -50.69,-13.48 -21.38,0 -39.88,5.34 -55.49,15.82 -15.5,10.59 -27.47,24.27 -35.81,41.17 -8.34,16.89 -12.51,34.96 -12.51,54.2l0 31.01c0,26.41 4.6,48.76 13.79,67.04 9.09,18.39 21.92,32.3 38.39,41.7 16.35,9.52 35.38,14.23 57.09,14.23 14.12,0 26.94,-1.93 38.39,-5.98 11.55,-4.07 21.38,-10.05 29.72,-18.18 8.45,-8.12 14.86,-18.28 19.46,-30.47l51.86 14.54c-5.45,17.64 -14.64,33.15 -27.48,46.4 -12.94,13.27 -28.86,23.64 -47.9,31.01 -18.92,7.38 -40.31,11.02 -64.04,11.02z"/>
  <path id="_2" class="fil1" d="M5014.78 2865.71l0 -466.61 53.78 0 0 172.25 4.6 0c3.96,-6.09 9.41,-13.8 16.46,-23.31 7.06,-9.52 17.32,-18.07 30.59,-25.55 13.26,-7.48 31.33,-11.23 54.09,-11.23 29.41,0 55.39,7.38 77.95,22.03 22.46,14.75 39.99,35.6 52.61,62.66 12.62,27.05 18.92,58.91 18.92,95.69 0,37.1 -6.3,69.18 -18.92,96.23 -12.62,27.16 -30.05,48.12 -52.4,62.88 -22.35,14.85 -48.11,22.24 -77.3,22.24 -22.46,0 -40.42,-3.75 -53.99,-11.23 -13.48,-7.59 -23.85,-16.14 -31.12,-25.76 -7.37,-9.63 -12.94,-17.65 -16.89,-24.07l-6.41 0 0 53.78 -51.97 0zm52.93 -174.92c0,26.4 3.86,49.61 11.55,69.82 7.81,20.1 19.14,35.81 34,47.15 14.86,11.33 33.15,16.89 54.63,16.89 22.46,0 41.28,-5.88 56.45,-17.85 15.08,-11.87 26.41,-28.02 34.11,-48.23 7.69,-20.31 11.55,-42.88 11.55,-67.78 0,-24.59 -3.75,-46.83 -11.34,-66.72 -7.48,-19.78 -18.82,-35.5 -33.9,-47.15 -15.18,-11.55 -34.1,-17.43 -56.88,-17.43 -21.81,0 -40.2,5.56 -55.06,16.57 -14.96,11.02 -26.19,26.3 -33.79,45.97 -7.59,19.68 -11.34,42.56 -11.34,68.76z"/>
  <path id="_3" class="fil1" d="M6195.51 2865.71l-144.02 0 0 -466.61 150.44 0c45.22,0 83.93,9.31 116.11,27.91 32.19,18.6 56.88,45.33 74.1,79.98 17.1,34.74 25.76,76.23 25.76,124.56 0,48.54 -8.66,90.35 -25.98,125.42 -17.32,34.96 -42.56,61.8 -75.7,80.62 -33.04,18.71 -73.34,28.12 -120.72,28.12zm-87.46 -50.15l83.83 0c38.59,0 70.57,-7.37 95.9,-22.35 25.34,-14.85 44.26,-36.03 56.67,-63.5 12.51,-27.48 18.71,-60.2 18.71,-98.16 0,-37.74 -6.09,-70.14 -18.39,-97.41 -12.3,-27.26 -30.69,-48.22 -55.17,-62.87 -24.48,-14.64 -54.95,-22.03 -91.31,-22.03l-90.25 0 0 366.31z"/>
  <path id="_4" class="fil1" d="M6749.15 2872.98c-33.68,0 -62.77,-7.48 -87.14,-22.46 -24.37,-14.96 -43.09,-35.92 -56.24,-62.87 -13.15,-26.95 -19.67,-58.38 -19.67,-94.2 0,-35.81 6.52,-67.46 19.67,-94.84 13.16,-27.47 31.55,-48.86 55.17,-64.25 23.63,-15.39 51.22,-23.1 82.75,-23.1 18.29,0 36.25,3 53.99,9.09 17.75,6.09 34,15.93 48.55,29.51 14.54,13.58 26.19,31.54 34.85,53.88 8.66,22.35 13.05,49.83 13.05,82.44l0 22.78 -269.76 0 0 -46.51 215.02 0c0,-19.67 -3.86,-37.31 -11.77,-52.82 -7.8,-15.5 -18.81,-27.69 -33.25,-36.67 -14.34,-8.98 -31.23,-13.48 -50.69,-13.48 -21.38,0 -39.88,5.34 -55.49,15.82 -15.5,10.59 -27.47,24.27 -35.81,41.17 -8.34,16.89 -12.51,34.96 -12.51,54.2l0 31.01c0,26.41 4.6,48.76 13.79,67.04 9.09,18.39 21.92,32.3 38.39,41.7 16.35,9.52 35.38,14.23 57.09,14.23 14.12,0 26.94,-1.93 38.39,-5.98 11.55,-4.07 21.38,-10.05 29.72,-18.18 8.45,-8.12 14.86,-18.28 19.46,-30.47l51.86 14.54c-5.45,17.64 -14.64,33.15 -27.48,46.4 -12.94,13.27 -28.86,23.64 -47.9,31.01 -18.92,7.38 -40.31,11.02 -64.04,11.02z"/>
  <polygon id="_5" class="fil1" points="7348.34,2515.76 7218.96,2865.71 7164.33,2865.71 7034.95,2515.76 7093.22,2515.76 7189.77,2794.6 7193.52,2794.6 7290.07,2515.76 "/>
  <path id="_6" class="fil1" d="M7650.49 2872.98c-33.68,0 -62.77,-7.48 -87.14,-22.46 -24.37,-14.96 -43.09,-35.92 -56.24,-62.87 -13.15,-26.95 -19.67,-58.38 -19.67,-94.2 0,-35.81 6.52,-67.46 19.67,-94.84 13.16,-27.47 31.55,-48.86 55.17,-64.25 23.63,-15.39 51.22,-23.1 82.75,-23.1 18.29,0 36.25,3 53.99,9.09 17.75,6.09 34,15.93 48.55,29.51 14.54,13.58 26.19,31.54 34.85,53.88 8.66,22.35 13.05,49.83 13.05,82.44l0 22.78 -269.76 0 0 -46.51 215.02 0c0,-19.67 -3.86,-37.31 -11.77,-52.82 -7.8,-15.5 -18.81,-27.69 -33.25,-36.67 -14.34,-8.98 -31.23,-13.48 -50.69,-13.48 -21.38,0 -39.88,5.34 -55.49,15.82 -15.5,10.59 -27.47,24.27 -35.81,41.17 -8.34,16.89 -12.51,34.96 -12.51,54.2l0 31.01c0,26.41 4.6,48.76 13.79,67.04 9.09,18.39 21.92,32.3 38.39,41.7 16.35,9.52 35.38,14.23 57.09,14.23 14.12,0 26.94,-1.93 38.39,-5.98 11.55,-4.07 21.38,-10.05 29.72,-18.18 8.45,-8.12 14.86,-18.28 19.46,-30.47l51.86 14.54c-5.45,17.64 -14.64,33.15 -27.48,46.4 -12.94,13.27 -28.86,23.64 -47.9,31.01 -18.92,7.38 -40.31,11.02 -64.04,11.02z"/>
  <polygon id="_7" class="fil1" points="8028.25,2399.1 8028.25,2865.71 7974.46,2865.71 7974.46,2399.1 "/>
  <path id="_8" class="fil1" d="M8365.91 2872.98c-31.65,0 -59.35,-7.48 -83.08,-22.57 -23.74,-14.96 -42.23,-36.03 -55.59,-63.07 -13.27,-27.05 -19.89,-58.6 -19.89,-94.73 0,-36.46 6.62,-68.33 19.89,-95.48 13.37,-27.16 31.86,-48.33 55.59,-63.3 23.74,-15.07 51.44,-22.56 83.08,-22.56 31.54,0 59.23,7.48 82.96,22.56 23.85,14.97 42.35,36.14 55.6,63.3 13.37,27.15 19.99,59.02 19.99,95.48 0,36.13 -6.62,67.68 -19.99,94.73 -13.26,27.04 -31.76,48.11 -55.6,63.07 -23.74,15.08 -51.43,22.57 -82.96,22.57zm0 -48.33c23.95,0 43.72,-6.09 59.23,-18.39 15.5,-12.3 26.94,-28.44 34.32,-48.54 7.48,-20 11.23,-41.81 11.23,-65.11 0,-23.42 -3.75,-45.23 -11.23,-65.44 -7.38,-20.21 -18.82,-36.46 -34.32,-48.97 -15.5,-12.4 -35.28,-18.71 -59.23,-18.71 -24.07,0 -43.73,6.31 -59.24,18.71 -15.5,12.51 -26.94,28.76 -34.42,48.97 -7.49,20.21 -11.12,42.03 -11.12,65.44 0,23.31 3.63,45.11 11.12,65.11 7.48,20.1 18.92,36.24 34.42,48.54 15.5,12.3 35.17,18.39 59.24,18.39z"/>
  <path id="_9" class="fil1" d="M8703.55 2996.9l0 -481.14 51.97 0 0 55.59 6.41 0c3.96,-6.09 9.41,-13.8 16.47,-23.31 7.05,-9.52 17.21,-18.07 30.58,-25.55 13.26,-7.48 31.33,-11.23 54.1,-11.23 29.4,0 55.38,7.38 77.83,22.03 22.57,14.75 40.1,35.6 52.72,62.66 12.51,27.05 18.82,58.91 18.82,95.69 0,37.1 -6.31,69.18 -18.82,96.23 -12.62,27.16 -30.15,48.12 -52.39,62.88 -22.35,14.85 -48.12,22.24 -77.31,22.24 -22.45,0 -40.42,-3.75 -53.99,-11.23 -13.47,-7.59 -23.85,-16.14 -31.22,-25.76 -7.27,-9.63 -12.84,-17.65 -16.79,-24.07l-4.6 0 0 184.98 -53.78 0zm52.94 -306.11c0,26.4 3.85,49.61 11.54,69.82 7.81,20.1 19.04,35.81 34,47.15 14.86,11.33 33.04,16.89 54.63,16.89 22.46,0 41.28,-5.88 56.35,-17.85 15.18,-11.87 26.51,-28.02 34.21,-48.23 7.7,-20.31 11.55,-42.88 11.55,-67.78 0,-24.59 -3.85,-46.83 -11.34,-66.72 -7.48,-19.78 -18.81,-35.5 -33.9,-47.15 -15.17,-11.55 -34.1,-17.43 -56.88,-17.43 -21.81,0 -40.2,5.56 -55.16,16.57 -14.86,11.02 -26.09,26.3 -33.69,45.97 -7.59,19.68 -11.33,42.56 -11.33,68.76z"/>
  <path id="_10" class="fil1" d="M9191.54 2865.71l0 -349.95 51.97 0 0 54.74 4.6 0c7.27,-18.71 19.04,-33.26 35.28,-43.63 16.25,-10.48 35.71,-15.61 58.49,-15.61 23.1,0 42.35,5.13 57.85,15.61 15.39,10.37 27.37,24.91 36.02,43.63l3.64 0c8.98,-18.07 22.46,-32.51 40.42,-43.21 17.86,-10.69 39.35,-16.03 64.47,-16.03 31.23,0 56.88,9.73 76.77,29.19 19.89,19.57 29.83,49.93 29.83,91.1l0 234.16 -53.77 0 0 -234.16c0,-25.87 -7.06,-44.26 -21.18,-55.38 -14.11,-11.12 -30.79,-16.68 -49.93,-16.68 -24.59,0 -43.63,7.48 -57.2,22.24 -13.48,14.86 -20.21,33.58 -20.21,56.14l0 227.85 -54.74 0 0 -239.61c0,-19.99 -6.41,-36.03 -19.35,-48.22 -12.95,-12.19 -29.51,-18.39 -49.83,-18.39 -14.01,0 -27.05,3.75 -39.13,11.23 -12.09,7.37 -21.82,17.75 -29.19,30.79 -7.27,13.16 -11.02,28.34 -11.02,45.55l0 218.65 -53.78 0z"/>
  <path id="_11" class="fil1" d="M9993.02 2872.98c-33.68,0 -62.77,-7.48 -87.14,-22.46 -24.37,-14.96 -43.09,-35.92 -56.24,-62.87 -13.15,-26.95 -19.67,-58.38 -19.67,-94.2 0,-35.81 6.52,-67.46 19.67,-94.84 13.16,-27.47 31.55,-48.86 55.17,-64.25 23.63,-15.39 51.22,-23.1 82.75,-23.1 18.29,0 36.25,3 53.99,9.09 17.75,6.09 34,15.93 48.55,29.51 14.54,13.58 26.19,31.54 34.85,53.88 8.66,22.35 13.05,49.83 13.05,82.44l0 22.78 -269.76 0 0 -46.51 215.02 0c0,-19.67 -3.86,-37.31 -11.77,-52.82 -7.8,-15.5 -18.81,-27.69 -33.25,-36.67 -14.34,-8.98 -31.23,-13.48 -50.69,-13.48 -21.38,0 -39.88,5.34 -55.49,15.82 -15.5,10.59 -27.47,24.27 -35.81,41.17 -8.34,16.89 -12.51,34.96 -12.51,54.2l0 31.01c0,26.41 4.6,48.76 13.79,67.04 9.09,18.39 21.92,32.3 38.39,41.7 16.35,9.52 35.38,14.23 57.09,14.23 14.12,0 26.94,-1.93 38.39,-5.98 11.55,-4.07 21.38,-10.05 29.72,-18.18 8.45,-8.12 14.86,-18.28 19.46,-30.47l51.86 14.54c-5.45,17.64 -14.64,33.15 -27.48,46.4 -12.94,13.27 -28.86,23.64 -47.9,31.01 -18.92,7.38 -40.31,11.02 -64.04,11.02z"/>
  <path id="_12" class="fil1" d="M10370.77 2655.17l0 210.53 -53.78 0 0 -349.95 51.97 0 0 54.74 4.6 0c8.13,-17.86 20.64,-32.08 37.32,-42.99 16.68,-10.91 38.28,-16.25 64.68,-16.25 23.74,0 44.48,4.82 62.23,14.44 17.75,9.62 31.55,24.27 41.49,43.73 9.84,19.56 14.75,44.15 14.75,73.87l0 222.4 -53.77 0 0 -218.65c0,-27.58 -7.06,-48.97 -21.39,-64.36 -14.33,-15.5 -33.9,-23.21 -58.81,-23.21 -17.1,0 -32.4,3.75 -45.86,11.23 -13.48,7.37 -24.07,18.28 -31.76,32.51 -7.81,14.33 -11.66,31.65 -11.66,51.96z"/>
  <path id="_13" class="fil1" d="M10941.73 2515.76l0 45.54 -181.34 0 0 -45.54 181.34 0zm-128.52 -83.83l53.77 0 0 333.49c0,15.29 2.25,26.63 6.63,34.11 4.49,7.48 10.26,12.51 17.32,15.07 7.16,2.46 14.54,3.74 22.45,3.74 5.99,0 10.8,-0.32 14.65,-1.07 3.74,-0.64 6.84,-1.28 9.09,-1.71l10.9 48.33c-3.64,1.39 -8.66,2.78 -15.28,4.17 -6.52,1.5 -14.75,2.25 -24.8,2.25 -15.18,0 -30.05,-3.32 -44.48,-9.83 -14.55,-6.52 -26.51,-16.47 -36.03,-29.84 -9.52,-13.37 -14.22,-30.26 -14.22,-50.57l0 -348.14z"/>
  <path id="_14" class="fil1" d="M11923.8 2515.76c-2.79,-23.1 -13.8,-40.96 -33.26,-53.78 -19.46,-12.73 -43.31,-19.14 -71.53,-19.14 -20.75,0 -38.71,3.42 -54.1,10.05 -15.5,6.73 -27.48,15.93 -36.03,27.58 -8.55,11.66 -12.84,25.02 -12.84,39.89 0,12.4 3,23.1 8.99,31.97 5.98,8.87 13.69,16.25 23.09,22.14 9.41,5.87 19.25,10.58 29.62,14.33 10.37,3.74 19.78,6.73 28.44,8.98l47.47 12.83c12.09,3.11 25.66,7.59 40.64,13.16 14.96,5.66 29.29,13.26 43.09,22.88 13.69,9.73 25.02,22.03 34,37.1 8.98,14.97 13.47,33.47 13.47,55.28 0,25.23 -6.62,48 -19.67,68.43 -13.16,20.31 -32.3,36.46 -57.42,48.43 -25.23,12.09 -55.7,18.07 -91.53,18.07 -33.36,0 -62.34,-5.45 -86.71,-16.25 -24.37,-10.69 -43.52,-25.76 -57.42,-45.01 -13.9,-19.35 -21.7,-41.7 -23.52,-67.25l58.27 0c1.61,17.64 7.48,32.19 17.96,43.63 10.37,11.44 23.53,19.99 39.56,25.55 16.04,5.45 33.37,8.23 51.86,8.23 21.6,0 40.96,-3.53 58.06,-10.59 17.21,-7.05 30.8,-16.89 40.85,-29.61 10.05,-12.62 14.96,-27.48 14.96,-44.48 0,-15.5 -4.28,-28.12 -12.94,-37.85 -8.66,-9.73 -20.1,-17.64 -34.21,-23.74 -14.12,-5.98 -29.3,-11.33 -45.76,-15.93l-57.41 -16.35c-36.46,-10.48 -65.33,-25.45 -86.5,-44.91 -21.28,-19.46 -31.98,-44.9 -31.98,-76.34 0,-26.08 7.17,-48.86 21.28,-68.43 14.23,-19.46 33.37,-34.64 57.42,-45.54 24.17,-10.91 51,-16.25 80.84,-16.25 30.04,0 56.77,5.34 80.19,16.03 23.31,10.7 41.92,25.34 55.7,43.84 13.69,18.49 20.96,39.56 21.71,63.08l-54.63 0z"/>
  <path id="_15" class="fil1" d="M12319.83 2515.76l0 45.54 -181.34 0 0 -45.54 181.34 0zm-128.52 -83.83l53.77 0 0 333.49c0,15.29 2.25,26.63 6.63,34.11 4.49,7.48 10.26,12.51 17.32,15.07 7.16,2.46 14.54,3.74 22.45,3.74 5.99,0 10.8,-0.32 14.65,-1.07 3.74,-0.64 6.84,-1.28 9.09,-1.71l10.9 48.33c-3.64,1.39 -8.66,2.78 -15.28,4.17 -6.52,1.5 -14.75,2.25 -24.8,2.25 -15.18,0 -30.05,-3.32 -44.48,-9.83 -14.55,-6.52 -26.51,-16.47 -36.03,-29.84 -9.52,-13.37 -14.22,-30.26 -14.22,-50.57l0 -348.14z"/>
  <path id="_16" class="fil1" d="M12718.53 2722.64l0 -206.89 53.78 0 0 349.95 -53.78 0 0 -59.24 -3.64 0c-8.23,17.75 -20.96,32.83 -38.28,45.23 -17.31,12.4 -39.24,18.6 -65.64,18.6 -21.82,0 -41.28,-4.81 -58.28,-14.54 -17.1,-9.63 -30.47,-24.17 -40.09,-43.73 -9.73,-19.46 -14.65,-44.15 -14.65,-73.88l0 -222.39 53.78 0 0 218.75c0,25.45 7.16,45.87 21.49,61.06 14.44,15.18 32.73,22.77 55.07,22.77 13.37,0 26.94,-3.42 40.84,-10.26 13.91,-6.84 25.66,-17.32 35.18,-31.44 9.4,-14.12 14.22,-32.18 14.22,-53.99z"/>
  <path id="_17" class="fil1" d="M13099.92 2872.98c-29.19,0 -54.85,-7.38 -77.2,-22.24 -22.35,-14.75 -39.78,-35.71 -52.4,-62.88 -12.62,-27.05 -18.92,-59.13 -18.92,-96.23 0,-36.78 6.3,-68.64 18.92,-95.69 12.62,-27.05 30.16,-47.9 52.61,-62.66 22.46,-14.64 48.44,-22.03 77.95,-22.03 22.78,0 40.74,3.75 54.1,11.23 13.26,7.48 23.42,16.03 30.47,25.55 7.06,9.51 12.62,17.21 16.57,23.31l4.5 0 0 -172.25 53.77 0 0 466.61 -51.96 0 0 -53.78 -6.31 0c-3.96,6.41 -9.62,14.44 -16.89,24.07 -7.27,9.62 -17.75,18.17 -31.22,25.76 -13.48,7.48 -31.55,11.23 -53.99,11.23zm7.26 -48.33c21.6,0 39.78,-5.56 54.74,-16.89 14.86,-11.34 26.2,-27.05 33.9,-47.15 7.7,-20.21 11.66,-43.42 11.66,-69.82 0,-26.2 -3.85,-49.08 -11.44,-68.76 -7.59,-19.67 -18.82,-34.95 -33.69,-45.97 -14.86,-11.01 -33.25,-16.57 -55.17,-16.57 -22.77,0 -41.7,5.88 -56.77,17.43 -15.18,11.65 -26.51,27.37 -34,47.15 -7.48,19.89 -11.22,42.13 -11.22,66.72 0,24.9 3.85,47.47 11.44,67.78 7.69,20.21 19.14,36.36 34.21,48.23 15.07,11.97 33.9,17.85 56.34,17.85z"/>
  <path id="_18" class="fil1" d="M13463.01 2865.71l0 -349.95 53.78 0 0 349.95 -53.78 0zm27.37 -408.23c-10.47,0 -19.46,-3.64 -27.04,-10.69 -7.49,-7.16 -11.23,-15.71 -11.23,-25.76 0,-10.06 3.74,-18.61 11.23,-25.77 7.58,-7.16 16.57,-10.69 27.04,-10.69 10.48,0 19.46,3.53 26.95,10.69 7.59,7.16 11.33,15.71 11.33,25.77 0,10.05 -3.74,18.6 -11.33,25.76 -7.49,7.05 -16.47,10.69 -26.95,10.69z"/>
  <path id="_19" class="fil1" d="M13854.46 2872.98c-31.65,0 -59.35,-7.48 -83.08,-22.57 -23.74,-14.96 -42.23,-36.03 -55.59,-63.07 -13.27,-27.05 -19.89,-58.6 -19.89,-94.73 0,-36.46 6.62,-68.33 19.89,-95.48 13.37,-27.16 31.86,-48.33 55.59,-63.3 23.74,-15.07 51.44,-22.56 83.08,-22.56 31.54,0 59.23,7.48 82.96,22.56 23.85,14.97 42.35,36.14 55.6,63.3 13.37,27.15 19.99,59.02 19.99,95.48 0,36.13 -6.62,67.68 -19.99,94.73 -13.26,27.04 -31.76,48.11 -55.6,63.07 -23.74,15.08 -51.43,22.57 -82.96,22.57zm0 -48.33c23.95,0 43.72,-6.09 59.23,-18.39 15.5,-12.3 26.94,-28.44 34.32,-48.54 7.48,-20 11.23,-41.81 11.23,-65.11 0,-23.42 -3.75,-45.23 -11.23,-65.44 -7.38,-20.21 -18.82,-36.46 -34.32,-48.97 -15.5,-12.4 -35.28,-18.71 -59.23,-18.71 -24.07,0 -43.73,6.31 -59.24,18.71 -15.5,12.51 -26.94,28.76 -34.42,48.97 -7.49,20.21 -11.12,42.03 -11.12,65.44 0,23.31 3.63,45.11 11.12,65.11 7.48,20.1 18.92,36.24 34.42,48.54 15.5,12.3 35.17,18.39 59.24,18.39z"/>
 </g>
</svg>
